<svg width="318" height="318" viewBox="0 0 265 265" fill="none" xmlns="http://www.w3.org/2000/svg">
<rect x="69.9399" y="48.8179" width="9.03799" height="11.9426" transform="rotate(-40 69.9399 48.8179)" fill="#7432fa"/>
<rect x="86.0004" y="37.8198" width="9.03799" height="11.9426" transform="rotate(-25 86.0004 37.8198)" fill="#7432fa"/>
<rect x="104.971" y="30.5498" width="9.03799" height="11.9426" transform="rotate(-10 104.971 30.5498)" fill="#7432fa"/>
<rect x="122.938" y="27.6038" width="13.3932" height="11.9426" fill="#7432fa"/>
<rect x="139.006" y="236.637" width="9.03798" height="11.9426" transform="rotate(-180 139.006 236.637)" fill="#7432fa"/>
<rect x="120.004" y="235.685" width="9.03799" height="11.9426" transform="rotate(-175 120.004 235.685)" fill="#7432fa"/>
<rect x="101.115" y="232.094" width="9.03798" height="11.9426" transform="rotate(-160 101.115 232.094)" fill="#7432fa"/>
<rect x="84.2167" y="224.588" width="9.03798" height="11.9426" transform="rotate(-150 84.2167 224.588)" fill="#7432fa"/>
<rect x="67.5227" y="213.91" width="9.03798" height="11.9426" transform="rotate(-140 67.5227 213.91)" fill="#7432fa"/>
<rect x="53.6305" y="200.779" width="9.03798" height="11.9426" transform="rotate(-130 53.6305 200.779)" fill="#7432fa"/>
<rect x="42.5672" y="186.199" width="9.03798" height="11.9426" transform="rotate(-120 42.5672 186.199)" fill="#7432fa"/>
<rect x="34.3652" y="168.188" width="9.03798" height="11.9426" transform="rotate(-110 34.3652 168.188)" fill="#7432fa"/>
<rect x="28.6021" y="149.311" width="9.03798" height="11.9426" transform="rotate(-95 28.6021 149.311)" fill="#7432fa"/>
<rect x="28.3712" y="130.541" width="9.03798" height="11.9426" transform="rotate(-90 28.3712 130.541)" fill="#7432fa"/>
<rect x="30.306" y="111.932" width="9.03798" height="11.9426" transform="rotate(-80 30.306 111.932)" fill="#7432fa"/>
<rect x="56.0084" y="61.3819" width="9.03799" height="11.9426" transform="rotate(-45 56.0084 61.3819)" fill="#7432fa"/>
<rect x="43.9918" y="76.3494" width="9.03799" height="11.9426" transform="rotate(-55 43.9918 76.3494)" fill="#7432fa"/>
<rect x="34.8951" y="92.9741" width="9.03799" height="11.9426" transform="rotate(-65 34.8951 92.9741)" fill="#7432fa"/>
<rect x="193.066" y="215.422" width="9.03799" height="11.9426" transform="rotate(140 193.066 215.422)" fill="#7432fa"/>
<rect x="177.006" y="226.421" width="9.03799" height="11.9426" transform="rotate(155 177.006 226.421)" fill="#7432fa"/>
<rect x="158.035" y="233.691" width="9.03799" height="11.9426" transform="rotate(170 158.035 233.691)" fill="#7432fa"/>
<rect x="140.068" y="236.637" width="13.3932" height="11.9426" transform="rotate(-180 140.068 236.637)" fill="#7432fa"/>
<rect x="124" y="27.6038" width="9.03798" height="11.9426" fill="#7432fa"/>
<rect x="143.003" y="28.5555" width="9.03799" height="11.9426" transform="rotate(5 143.003 28.5555)" fill="#7432fa"/>
<rect x="161.892" y="32.1461" width="9.03798" height="11.9426" transform="rotate(20 161.892 32.1461)" fill="#7432fa"/>
<rect x="178.79" y="39.6528" width="9.03798" height="11.9426" transform="rotate(30 178.79 39.6528)" fill="#7432fa"/>
<rect x="195.484" y="50.3305" width="9.03798" height="11.9426" transform="rotate(40 195.484 50.3305)" fill="#7432fa"/>
<rect x="209.376" y="63.4613" width="9.03798" height="11.9426" transform="rotate(50 209.376 63.4613)" fill="#7432fa"/>
<rect x="220.439" y="78.0411" width="9.03798" height="11.9426" transform="rotate(60 220.439 78.0411)" fill="#7432fa"/>
<rect x="228.641" y="96.0524" width="9.03799" height="11.9426" transform="rotate(70 228.641 96.0524)" fill="#7432fa"/>
<rect x="234.404" y="114.929" width="9.03798" height="11.9426" transform="rotate(85 234.404 114.929)" fill="#7432fa"/>
<rect x="234.635" y="133.699" width="9.03798" height="11.9426" transform="rotate(90 234.635 133.699)" fill="#7432fa"/>
<rect x="232.7" y="152.308" width="9.03798" height="11.9426" transform="rotate(100 232.7 152.308)" fill="#7432fa"/>
<rect x="206.998" y="202.858" width="9.03799" height="11.9426" transform="rotate(135 206.998 202.858)" fill="#7432fa"/>
<rect x="219.014" y="187.891" width="9.03799" height="11.9426" transform="rotate(125 219.014 187.891)" fill="#7432fa"/>
<rect x="228.111" y="171.266" width="9.03799" height="11.9426" transform="rotate(115 228.111 171.266)" fill="#7432fa"/>
</svg>
